<svg viewBox="0 0 11 10" xmlns="http://www.w3.org/2000/svg">
<path d="M1.21224 4.03271C2.91837 4.03271 2.91837 4.81075 9.9 4.81075C6.84694 3.75935 5.18571 2.24533 5.18571 1.38318C5.18571 0.794392 5.63469 0.5 6.10612 0.5C7.47551 0.5 7.40816 3.65421 11 4.97897V5.02103C7.40816 6.3458 7.47551 9.5 6.10612 9.5C5.63469 9.5 5.18571 9.20561 5.18571 8.61682C5.18571 7.75467 6.84694 6.24065 9.9 5.18925C2.91837 5.18925 2.91837 5.96729 1.21224 5.96729C0.448979 5.96729 0 5.5257 0 5C0 4.49533 0.426531 4.03271 1.21224 4.03271Z" />
</svg>
