<svg width="24" height="24" viewBox="0 0 24 24" fill="none" xmlns="http://www.w3.org/2000/svg">
<circle cx="12.3906" cy="12.2656" r="11.4219" transform="rotate(-90 12.3906 12.2656)" fill="white"/>
<path d="M5.67918 12.3389C5.67918 11.7862 6.12132 11.322 6.87295 11.322C8.55307 11.322 8.55307 12.1399 15.4283 12.1399C12.4218 11.0346 10.7859 9.44289 10.7859 8.53651C10.7859 7.91752 11.228 7.60802 11.6922 7.60802C13.0408 7.60802 12.9744 10.9241 16.5115 12.3168L16.5115 12.361C12.9744 13.7537 13.0408 17.0698 11.6922 17.0698C11.228 17.0698 10.7859 16.7603 10.7859 16.1413C10.7859 15.2349 12.4218 13.6432 15.4283 12.5379C8.55307 12.5379 8.55307 13.3558 6.87295 13.3558C6.09921 13.3558 5.67918 12.8695 5.67918 12.3389Z" fill="black"/>
</svg>
