<svg viewBox="0 0 446 61" fill="none" xmlns="http://www.w3.org/2000/svg">
<path d="M0 26.2978C0 13.2844 9.13099 0.971482 23.4037 0.971482C28.0135 0.971482 30.6287 2.25926 32.5347 2.25926C33.665 2.25926 34.2634 1.83 34.5072 0H35.4601L35.6374 13.4652L34.6845 13.533C33.5985 5.44482 29.72 2.21407 23.4037 2.21407C11.3472 2.19148 4.01143 13.6459 4.01143 25.5748C4.01143 35.9222 9.75154 43.6037 18.6387 43.6037C24.6005 43.6037 30.0525 40.0793 34.1747 33.9341L34.6623 34.9056C30.9611 40.8022 25.354 45.7952 17.2203 45.7952C6.53796 45.7952 0.0221626 37.21 0.0221626 26.3204L0 26.2978Z" fill="#8F877A"/>
<path d="M39.0508 33.663C39.0508 23.3834 45.7882 13.1489 55.296 13.1489C61.8118 13.1489 65.2026 18.0289 65.2026 25.3263C65.2026 35.606 58.4652 45.7726 48.9575 45.7726C42.4417 45.7726 39.0508 40.9604 39.0508 33.663ZM49.4007 44.6882C56.3819 44.6882 61.4128 35.1315 61.4128 24.7841C61.4128 17.9611 59.2631 14.256 54.897 14.256C47.9158 14.256 42.8849 23.8126 42.8849 34.16C42.8849 40.983 45.0347 44.6882 49.4007 44.6882Z" fill="#8F877A"/>
<path d="M107.621 39.1981C107.621 37.7295 107.732 36.3288 108.22 33.8436L110.369 21.9825C110.613 20.5818 110.724 19.791 110.724 19.0003C110.724 17.1251 110.192 16.131 108.862 16.131C105.161 16.131 99.2439 23.2477 95.6535 31.3584C93.8583 35.4477 92.8389 39.2206 92.307 42.4966L91.9524 44.6881H88.7831L92.7945 21.9825C93.0383 20.5818 93.1491 19.791 93.1491 19.0003C93.1491 17.1251 92.6172 16.131 91.3096 16.131C87.6085 16.131 81.6911 23.2477 78.1007 31.3584C76.3056 35.4477 75.2861 39.2206 74.7542 42.4966L74.3996 44.6881H71.2303L75.8845 18.8195H70.2773V17.961C73.6904 17.961 78.0343 15.9503 79.2975 13.2844H80.0732L76.7932 31.494H77.0369C79.9624 24.1288 86.722 13.1714 93.1048 13.1714C95.3654 13.1714 96.5179 14.6851 96.5179 17.1929C96.5179 17.9836 96.407 19.5651 96.0303 21.5758L94.3016 31.494H94.5897C97.5152 24.1288 104.275 13.1714 110.658 13.1714C112.918 13.1714 114.071 14.6851 114.071 17.1929C114.071 17.9836 113.96 19.5651 113.583 21.5758L111.256 34.4762C110.901 36.4869 110.768 37.7069 110.768 38.7462C110.768 42.5869 112.32 44.5299 115.356 44.5299C124.487 44.5299 143.015 27.0658 159.659 27.0658C168.613 27.0658 171.538 32.1718 171.538 36.3288C171.538 38.4525 170.585 41.9318 168.724 41.9318C168.059 41.9318 167.593 41.3895 167.593 40.7795C167.593 40.1018 168.014 39.6951 168.79 39.1303C169.566 38.588 170.408 37.9103 170.408 36.3966C170.408 32.5558 165.687 30.2514 159.593 30.2514C143.879 30.2514 124.886 45.8403 114.093 45.8403C109.971 45.8403 107.577 43.2873 107.577 39.2658L107.621 39.1981Z" fill="#8F877A"/>
<path d="M176.237 42.4287C176.237 41.5701 176.414 40.2372 176.725 38.5427L180.182 18.8194H174.619V17.9609C177.899 17.9609 182.332 15.9501 183.573 13.2842H184.282L179.694 39.4013C179.584 40.079 179.517 40.6213 179.517 41.0505C179.517 42.0898 179.938 42.745 180.825 42.745C182.088 42.745 184.06 41.2313 186.321 38.0457L186.919 38.7687C184.415 42.7224 181.6 45.7724 178.985 45.7724C177.124 45.7724 176.237 44.3716 176.237 42.4287ZM184.614 0.541992C186.099 0.541992 187.185 1.62644 187.185 3.23051C187.185 4.99273 185.811 6.39347 184.016 6.39347C182.531 6.39347 181.445 5.28644 181.445 3.70496C181.445 1.94273 182.819 0.541992 184.614 0.541992Z" fill="#8F877A"/>
<path d="M211.542 42.4288C211.542 41.5703 211.719 40.2373 212.029 38.5429L214.955 21.9825C215.199 20.5818 215.31 19.791 215.31 19.0003C215.31 17.1251 214.6 16.131 213.16 16.131C209.215 16.131 203.364 23.2477 199.774 31.3584C197.978 35.4477 196.959 39.2206 196.427 42.4966L196.072 44.6881H192.903L197.557 18.8195H191.95V17.961C195.363 17.961 199.707 15.9503 200.97 13.2844H201.746L198.466 31.494H198.71C201.635 24.1288 208.328 13.1714 214.955 13.1714C217.349 13.1714 218.656 14.6851 218.656 17.1929C218.656 17.9836 218.545 19.5651 218.169 21.5758L214.999 39.424C214.888 40.1018 214.822 40.644 214.822 41.0732C214.822 42.1125 215.243 42.7677 216.13 42.7677C217.393 42.7677 219.365 41.254 221.626 38.0684L222.224 38.7914C219.653 42.7451 216.905 45.7951 214.29 45.7951C212.428 45.7951 211.542 44.3944 211.542 42.4514V42.4288Z" fill="#8F877A"/>
<path d="M221.027 52.6631C221.027 48.0994 225.216 45.1849 229.383 44.1457L229.804 44.8686C226.457 46.2016 224.418 48.7094 224.418 52.3468C224.418 57.2268 228.009 59.8927 233.97 59.8927C240.42 59.8927 246.204 56.7975 246.204 51.1268C246.204 47.5346 243.877 44.8461 238.314 44.0101L232.995 43.2194C230.07 42.7901 226.834 41.4572 226.834 38.7235C226.834 36.2157 229.405 34.702 233.394 34.0242C229.582 32.9172 227.233 30.0027 227.233 25.8005C227.233 19.2938 232.796 13.1261 240.242 13.1261C247.689 13.1261 250.57 10.9346 252.786 10.9346C253.806 10.9346 254.449 11.4316 254.449 12.3353C254.449 13.4875 253.385 14.7075 251.102 14.7075C249.24 14.7075 247.512 13.849 244.719 13.849L244.542 13.962C246.204 14.7527 249.728 17.3735 249.728 22.3664C249.728 28.2631 244.83 34.4083 236.829 34.4083H236.408C234.081 34.4761 229.848 35.199 229.848 37.4583C229.848 38.7461 231.289 39.8983 234.148 40.3275L238.935 41.0505C246.404 42.2027 248.974 45.1398 248.974 49.5227C248.974 56.2779 242.414 60.9772 233.438 60.9772C225.549 60.9772 220.961 57.4527 220.961 52.6405L221.027 52.6631ZM237.339 33.482C244.032 33.482 246.115 27.269 246.115 22.2083C246.115 17.8253 244.564 14.1201 239.777 14.1201C233.328 14.1201 231.001 20.7623 231.001 25.9812C231.001 31.2001 233.328 33.4594 237.339 33.4594V33.482Z" fill="#8F877A"/>
<path d="M271.137 43.4681C270.362 43.4681 269.276 43.7619 269.231 45.5919H268.278L267.99 30.613H269.076C269.608 38.2944 273.797 44.4848 281.133 44.4848C286.917 44.4848 290.441 40.1019 290.441 34.7474C290.441 29.9352 287.626 27.45 283.992 24.7615L281.243 22.7507C277.542 20.0622 273.487 16.8541 273.487 11.3641C273.487 5.33185 278.274 1.01667 285.011 1.01667C288.424 1.01667 290.618 2.1237 292.546 2.1237C294.209 2.1237 294.585 1.33296 294.696 0H295.649L295.937 13.6911H294.918C294.031 6.43889 290.441 2.30444 285.055 2.30444C280.401 2.30444 276.922 5.46741 276.922 10.0989C276.922 14.7304 279.847 17.1026 283.615 19.8363L286.297 21.7793C291.194 25.3037 294.009 28.3537 294.009 33.1659C294.009 40.7119 288.269 45.7726 281.11 45.7726C276.279 45.7726 273.176 43.4681 271.137 43.4681Z" fill="#8F877A"/>
<path d="M299.749 33.663C299.749 23.3834 306.509 13.1489 315.994 13.1489C322.51 13.1489 325.901 18.0289 325.901 25.3263C325.901 35.606 319.163 45.7726 309.656 45.7726C303.14 45.7726 299.749 40.9604 299.749 33.663ZM310.077 44.6882C317.058 44.6882 322.089 35.1315 322.089 24.7841C322.089 17.9611 319.939 14.256 315.573 14.256C308.592 14.256 303.561 23.8126 303.561 34.16C303.561 40.983 305.711 44.6882 310.077 44.6882Z" fill="#8F877A"/>
<path d="M330.555 33.663C330.555 23.3834 337.292 13.1489 346.8 13.1489C353.316 13.1489 356.707 18.0289 356.707 25.3263C356.707 35.606 349.969 45.7726 340.461 45.7726C333.946 45.7726 330.555 40.9604 330.555 33.663ZM340.905 44.6882C347.886 44.6882 352.917 35.1315 352.917 24.7841C352.917 17.9611 350.767 14.256 346.401 14.256C339.42 14.256 334.389 23.8126 334.389 34.16C334.389 40.983 336.539 44.6882 340.905 44.6882Z" fill="#8F877A"/>
<path d="M382.039 39.1981C382.039 37.7295 382.15 36.3288 382.637 33.8436L384.787 21.9825C385.031 20.5818 385.142 19.791 385.142 19.0003C385.142 17.1251 384.432 16.131 382.992 16.131C379.047 16.131 373.196 23.2477 369.606 31.3584C367.81 35.4477 366.791 39.2206 366.259 42.4966L365.904 44.6881H362.735L367.389 18.8195H361.782V17.961C365.195 17.961 369.539 15.9503 370.802 13.2844H371.578L368.298 31.494H368.542C371.467 24.1288 378.16 13.1714 384.787 13.1714C387.181 13.1714 388.488 14.6851 388.488 17.1929C388.488 17.9836 388.377 19.5651 388.001 21.5758L385.673 34.4762C385.319 36.4869 385.186 37.7069 385.186 38.7462C385.186 42.5869 386.737 44.5299 389.796 44.5299C398.927 44.5299 417.455 27.0658 434.121 27.0658C443.075 27.0658 446 32.1718 446 36.3288C446 38.4525 445.047 41.9318 443.185 41.9318C442.521 41.9318 442.055 41.3895 442.055 40.7795C442.055 40.1018 442.476 39.6951 443.252 39.1303C444.028 38.588 444.87 37.9103 444.87 36.3966C444.87 32.5558 440.149 30.2514 434.054 30.2514C418.341 30.2514 399.348 45.8403 388.555 45.8403C384.432 45.8403 382.039 43.2873 382.039 39.2658V39.1981Z" fill="#8F877A"/>
</svg>
