<svg viewBox="0 0 1376 373" xmlns="http://www.w3.org/2000/svg">
<path d="M0 280.894C0 219.715 43.8259 161.948 112.326 161.948C134.37 161.948 146.992 167.939 156.152 167.939C161.586 167.939 164.479 165.928 165.618 157.356H170.22L171.096 220.546L166.495 220.852C161.323 182.851 142.741 167.677 112.326 167.677C54.4756 167.677 19.2396 221.421 19.2396 277.439C19.2396 326.023 46.7184 362.057 89.4048 362.057C118.067 362.057 144.143 345.483 163.909 316.621L166.188 321.213C148.438 348.938 121.485 372.377 82.5241 372.377C31.2478 372.377 0 332.058 0 280.894Z" />
<path d="M237.23 372.377C206.858 372.377 186.786 351.78 186.786 316.621C186.786 266.331 225.747 219.146 269.573 219.146C286.183 219.146 299.068 226.012 299.068 242.892C299.068 274.028 255.505 293.488 205.982 294.056C204.842 300.047 204.273 306.344 204.273 312.335C204.273 342.64 218.867 362.668 244.943 362.668C268.697 362.668 283.904 346.663 295.08 330.658L297.666 333.807C285.614 352.392 267.031 372.42 237.23 372.42V372.377ZM281.625 244.029C281.625 233.184 276.454 224.875 263.569 224.875C239.509 224.875 215.141 254.305 207.121 288.896C253.533 288.021 281.625 269.742 281.625 244.029Z" />
<path d="M350.431 245.428H323.521V241.404C339.299 241.404 360.467 231.959 366.515 219.408H370.24L359.371 278.006H360.248C372.3 250.85 395.221 219.102 415.556 219.102C420.158 219.102 421.867 220.808 421.867 223.388C421.867 227.105 417.835 231.959 411.831 237.381C392.065 237.381 374.885 256.535 364.28 279.974C357.706 294.58 353.981 310.542 350.518 328.558L343.375 367.128H328.474L350.518 245.34L350.431 245.428Z" />
<path d="M415.206 325.76C415.206 272.322 451.012 219.146 494.838 219.146C510.878 219.146 520.914 226.318 530.381 226.318C535.552 226.318 538.401 224.307 541.556 219.146H544.975L526.042 320.338C524.639 328.34 524.026 334.069 524.026 339.229C524.026 357.246 531.476 366.386 546.07 366.386C589.896 366.386 678.731 294.348 758.626 294.348C801.619 294.348 815.643 318.356 815.643 337.816C815.643 347.83 811.042 364.141 802.189 364.141C799.033 364.141 796.754 361.561 796.754 358.719C796.754 355.57 798.77 353.558 802.496 351.022C806.221 348.442 810.253 345.293 810.253 338.165C810.253 320.149 787.595 309.304 758.407 309.304C683.07 309.304 591.956 372.464 540.11 372.464C520.344 372.464 509.169 360.438 509.169 341.591C509.169 334.725 510.308 327.597 511.448 319.857L512.324 314.434H510.615C497.73 339.885 474.24 372.464 446.454 372.464C426.426 372.464 415.25 355.584 415.25 325.848L415.206 325.76ZM453.028 360.351C469.945 360.351 491.989 339.185 505.75 313.472C514.077 298.035 517.803 283.473 520.958 266.594L526.086 239.743C518.065 230.866 506.583 224.307 494.005 224.307C461.355 224.307 432.956 270.617 432.956 321.519C432.956 346.969 440.143 360.395 453.028 360.395V360.351Z" />
<path d="M1008.87 356.634C1008.87 352.611 1009.75 346.357 1011.15 338.355L1025.18 260.603C1026.32 254.043 1026.89 250.326 1026.89 246.609C1026.89 237.732 1024.3 233.184 1017.99 233.184C1000.24 233.184 971.885 266.637 954.662 304.639C946.072 323.792 941.207 341.503 938.621 356.94L936.912 367.216H921.748L940.944 260.603C942.084 254.043 942.653 250.326 942.653 246.609C942.653 237.732 940.068 233.184 933.8 233.184C916.051 233.184 887.652 266.637 870.472 304.639C861.882 323.792 857.018 341.503 854.432 356.94L852.723 367.216H837.515L859.866 245.734H832.957V241.711C849.304 241.711 870.209 232.265 876.213 219.715H879.938L864.161 305.207H865.301C879.325 270.617 911.712 219.146 942.347 219.146C953.215 219.146 958.65 226.318 958.65 238.038C958.65 241.755 958.08 249.189 956.371 258.635L948.044 305.251H949.49C963.515 270.66 995.902 219.19 1026.54 219.19C1037.4 219.19 1042.84 226.362 1042.84 238.082C1042.84 241.799 1042.27 249.233 1040.56 258.678L1025.4 342.421C1024.83 345.57 1024.52 348.15 1024.52 350.162C1024.52 355.016 1026.54 358.164 1030.83 358.164C1036.84 358.164 1046.3 350.993 1057.21 336.168L1060.06 339.579C1047.75 358.164 1034.56 372.464 1021.98 372.464C1013.08 372.464 1008.79 365.905 1008.79 356.721L1008.87 356.634Z" />
<path d="M1086.58 356.634C1086.58 352.611 1087.45 346.358 1088.86 338.355L1105.47 245.735H1078.82V241.712C1094.6 241.712 1115.77 232.266 1121.81 219.715H1125.23L1103.19 342.335C1102.62 345.483 1102.31 348.063 1102.31 350.075C1102.31 354.929 1104.33 358.077 1108.62 358.077C1114.63 358.077 1124.09 350.906 1134.96 336.081L1137.81 339.492C1125.76 358.077 1112.3 372.377 1099.73 372.377C1090.83 372.377 1086.53 365.818 1086.53 356.634H1086.58ZM1126.68 159.937C1133.82 159.937 1138.99 165.097 1138.99 172.531C1138.99 180.839 1132.42 187.399 1123.83 187.399C1116.64 187.399 1111.51 182.283 1111.51 174.848C1111.51 166.54 1118.09 159.98 1126.68 159.98V159.937Z" />
<path d="M1159.63 315.177C1159.63 265.718 1195.74 219.102 1240.71 219.102C1258.77 219.102 1272.53 226.536 1272.53 236.55C1272.53 241.404 1269.11 245.428 1263.06 245.428C1249.3 245.428 1249.87 225.968 1230.41 225.968C1201.49 225.968 1177.12 269.435 1177.12 310.848C1177.12 341.721 1190.57 362.58 1216.65 362.58C1235.85 362.58 1252.46 351.429 1266.52 330.264L1268.8 333.675C1259.34 348.237 1241.02 372.288 1208.63 372.288C1176.24 372.288 1159.63 349.418 1159.63 315.133V315.177Z" />
<path d="M1282.56 352.086C1282.56 346.663 1286.29 343.777 1290.89 343.777C1303.21 343.777 1302.37 366.91 1325.56 366.91C1341.9 366.91 1353.04 355.759 1353.04 339.185C1353.04 303.72 1302.64 291.738 1302.64 256.011C1302.64 237.163 1316.66 219.146 1344.18 219.146C1360.49 219.146 1376 224.875 1376 234.889C1376 239.743 1372.58 243.46 1367.67 243.46C1356.5 243.46 1356.5 224.613 1338.75 224.613C1326.17 224.613 1314.12 234.321 1314.12 248.052C1314.12 277.22 1366.84 294.931 1366.84 332.932C1366.84 355.234 1348.52 372.377 1318.98 372.377C1292.34 372.377 1282.61 360.351 1282.61 352.086H1282.56Z" />
<path d="M626.567 265.826C596.077 265.826 575.916 245.115 575.916 209.725C575.916 159.083 615.055 111.61 659.081 111.61C675.767 111.61 688.711 118.52 688.711 135.49C688.711 166.852 644.972 186.399 595.199 186.991C594.053 193.042 593.481 199.36 593.481 205.411C593.481 235.895 608.162 256.034 634.337 256.034C658.221 256.034 673.476 239.923 684.683 223.812L687.279 226.981C675.194 245.688 656.503 265.826 626.567 265.826ZM671.166 136.654C671.166 125.716 665.992 117.394 653.048 117.394C628.877 117.394 604.42 147.019 596.344 181.837C642.967 180.959 671.166 162.557 671.166 136.654Z" />
<path d="M722.1 258.345C722.1 256.321 722.673 253.744 724.391 247.712C731.875 220.091 735.331 193.615 735.331 170.614C735.331 77.9577 679.506 6.31831 606.994 6.31831C570.166 6.31831 546.568 25.0251 546.568 45.1635C546.568 54.3642 551.456 60.9879 551.456 69.3296C551.456 77.0987 546.855 81.1264 540.822 81.1264C534.216 81.1264 529.042 76.2206 529.042 62.9922C529.023 30.7708 557.794 0 609.877 0C691.018 0 751.731 74.2163 751.731 174.908C751.731 205.107 746.27 233.587 739.645 255.748C762.67 246.261 788.845 224.672 807.842 198.788C825.406 175.195 837.473 148.146 837.473 121.403C837.473 82.8443 812.729 77.385 812.729 63.2786C812.729 57.5138 817.044 54.0779 821.932 54.0779C833.711 54.0779 848.393 75.3807 848.393 108.175C848.393 140.969 833.139 176.359 811.851 203.98C792.282 229.578 766.68 251.454 742.776 261.227C737.03 263.518 732.429 264.968 728.973 264.968C724.658 264.968 722.062 262.372 722.062 258.345H722.1Z" />
</svg>
