<svg viewBox="0 0 216 33" fill="none" xmlns="http://www.w3.org/2000/svg">
<path d="M47.751 21.3817C47.751 13.9012 53.1097 6.83781 61.4855 6.83781C64.1809 6.83781 65.7242 7.57035 66.8442 7.57035C67.5087 7.57035 67.8624 7.32439 68.0017 6.27637H68.5644L68.6716 14.0028L68.1089 14.0403C67.4765 9.39369 65.2044 7.53827 61.4855 7.53827C54.4119 7.53827 50.1035 14.1098 50.1035 20.9593C50.1035 26.8999 53.4634 31.3058 58.6828 31.3058C62.1875 31.3058 65.3759 29.2793 67.7927 25.7503L68.0714 26.3117C65.9011 29.7017 62.6054 32.5677 57.8415 32.5677C51.5718 32.5677 47.751 27.6378 47.751 21.3817Z" fill="#241409"/>
<path d="M76.7578 32.5675C73.0442 32.5675 70.5898 30.0491 70.5898 25.7501C70.5898 19.601 75.3538 13.8315 80.7125 13.8315C82.7435 13.8315 84.319 14.671 84.319 16.735C84.319 20.5421 78.9924 22.9215 72.937 22.991C72.7977 23.7236 72.728 24.4935 72.728 25.2261C72.728 28.9316 74.5125 31.3805 77.7009 31.3805C80.6054 31.3805 82.4648 29.4235 83.8313 27.4665L84.1475 27.8515C82.6738 30.124 80.4017 32.5729 76.7578 32.5729V32.5675ZM82.1862 16.874C82.1862 15.5479 81.5539 14.532 79.9784 14.532C77.0364 14.532 74.057 18.1306 73.0763 22.3601C78.7512 22.2531 82.1862 20.0181 82.1862 16.874Z" fill="#241409"/>
<path d="M90.5998 17.0451H87.3096V16.5532C89.2387 16.5532 91.827 15.3982 92.5665 13.8636H93.022L91.693 21.0286H91.8002C93.2739 17.7081 96.0765 13.8262 98.563 13.8262C99.1256 13.8262 99.3346 14.0347 99.3346 14.3502C99.3346 14.8047 98.8416 15.3982 98.1075 16.0612C95.6907 16.0612 93.59 18.4032 92.2932 21.2692C91.4894 23.0552 91.0339 25.0068 90.6106 27.2098L89.7371 31.9259H87.9151L90.6106 17.0344L90.5998 17.0451Z" fill="#241409"/>
<path d="M98.5195 26.8676C98.5195 20.3335 102.898 13.8315 108.256 13.8315C110.218 13.8315 111.445 14.7085 112.602 14.7085C113.235 14.7085 113.583 14.4625 113.969 13.8315H114.387L112.072 26.2046C111.9 27.1831 111.825 27.8835 111.825 28.5145C111.825 30.7175 112.736 31.835 114.521 31.835C119.88 31.835 130.742 21.804 140.511 21.804C145.768 21.804 147.482 24.7395 147.482 27.1189C147.482 28.3434 146.92 30.3378 145.837 30.3378C145.452 30.3378 145.173 30.0224 145.173 29.6748C145.173 29.2898 145.419 29.0439 145.875 28.7337C146.33 28.4183 146.823 28.0333 146.823 27.1617C146.823 24.9587 144.053 23.6327 140.484 23.6327C131.272 23.6327 120.131 32.5782 113.792 32.5782C111.375 32.5782 110.009 31.1078 110.009 28.8032C110.009 27.9638 110.148 27.0922 110.287 26.1458L110.395 25.4827H110.186C108.61 28.5947 105.738 32.5782 102.34 32.5782C99.8914 32.5782 98.5249 30.5143 98.5249 26.8783L98.5195 26.8676ZM103.144 31.0971C105.213 31.0971 107.908 28.5092 109.591 25.3651C110.609 23.4776 111.064 21.697 111.45 19.6331L112.077 16.35C111.097 15.2645 109.693 14.4625 108.155 14.4625C104.162 14.4625 100.69 20.125 100.69 26.349C100.69 29.4609 101.569 31.1025 103.144 31.1025V31.0971Z" fill="#241409"/>
<path d="M171.11 30.6426C171.11 30.1507 171.217 29.3861 171.388 28.4076L173.103 18.9005C173.242 18.0985 173.312 17.644 173.312 17.1895C173.312 16.104 172.996 15.5479 172.224 15.5479C170.054 15.5479 166.587 19.6384 164.481 24.285C163.431 26.627 162.836 28.7925 162.52 30.68L162.311 31.9366H160.456L162.804 18.9005C162.943 18.0985 163.013 17.644 163.013 17.1895C163.013 16.104 162.696 15.5479 161.93 15.5479C159.76 15.5479 156.287 19.6384 154.187 24.285C153.136 26.627 152.542 28.7925 152.225 30.68L152.016 31.9366H150.157L152.89 17.0825H149.6V16.5906C151.598 16.5906 154.155 15.4357 154.889 13.9011H155.344L153.415 24.3545H153.554C155.269 20.125 159.229 13.8315 162.975 13.8315C164.304 13.8315 164.969 14.7085 164.969 16.1415C164.969 16.596 164.899 17.505 164.69 18.6599L163.672 24.3599H163.849C165.563 20.1303 169.523 13.8369 173.269 13.8369C174.598 13.8369 175.263 14.7138 175.263 16.1468C175.263 16.6013 175.193 17.5103 174.984 18.6653L173.13 28.9048C173.06 29.2898 173.023 29.6053 173.023 29.8513C173.023 30.4448 173.269 30.8298 173.794 30.8298C174.529 30.8298 175.686 29.9529 177.02 28.1402L177.369 28.5573C175.863 30.8298 174.25 32.5782 172.712 32.5782C171.624 32.5782 171.099 31.7762 171.099 30.6533L171.11 30.6426Z" fill="#241409"/>
<path d="M180.611 30.6428C180.611 30.1508 180.718 29.3862 180.889 28.4077L182.92 17.0827H179.662V16.5908C181.591 16.5908 184.18 15.4358 184.919 13.9012H185.337L182.642 28.8943C182.572 29.2793 182.534 29.5947 182.534 29.8407C182.534 30.4342 182.781 30.8192 183.306 30.8192C184.04 30.8192 185.198 29.9423 186.527 28.1296L186.875 28.5467C185.401 30.8192 183.756 32.5677 182.218 32.5677C181.13 32.5677 180.605 31.7656 180.605 30.6428H180.611ZM185.514 6.5918C186.387 6.5918 187.02 7.22275 187.02 8.13174C187.02 9.14768 186.216 9.94973 185.166 9.94973C184.287 9.94973 183.66 9.32413 183.66 8.41514C183.66 7.3992 184.464 6.59714 185.514 6.59714V6.5918Z" fill="#241409"/>
<path d="M189.543 25.5736C189.543 19.5261 193.959 13.8262 199.457 13.8262C201.664 13.8262 203.347 14.7352 203.347 15.9596C203.347 16.5532 202.929 17.0451 202.19 17.0451C200.507 17.0451 200.577 14.6657 198.197 14.6657C194.661 14.6657 191.681 19.9806 191.681 25.0442C191.681 28.8193 193.326 31.3698 196.515 31.3698C198.862 31.3698 200.893 30.0063 202.613 27.4183L202.892 27.8354C201.734 29.616 199.494 32.5568 195.534 32.5568C191.574 32.5568 189.543 29.7603 189.543 25.5683V25.5736Z" fill="#241409"/>
<path d="M204.575 30.0865C204.575 29.4235 205.031 29.0706 205.593 29.0706C207.099 29.0706 206.997 31.8992 209.832 31.8992C211.831 31.8992 213.192 30.5357 213.192 28.5092C213.192 24.1727 207.029 22.7076 207.029 18.3391C207.029 16.0345 208.744 13.8315 212.11 13.8315C214.103 13.8315 216 14.532 216 15.7565C216 16.35 215.582 16.8045 214.982 16.8045C213.615 16.8045 213.615 14.4999 211.445 14.4999C209.907 14.4999 208.433 15.687 208.433 17.3659C208.433 20.9324 214.88 23.098 214.88 27.7445C214.88 30.4715 212.64 32.5676 209.028 32.5676C205.77 32.5676 204.581 31.0971 204.581 30.0865H204.575Z" fill="#241409"/>
<path d="M11.9247 32.5036C8.19662 32.5036 5.73145 29.9712 5.73145 25.6439C5.73145 19.4517 10.5171 13.647 15.9003 13.647C17.9406 13.647 19.5233 14.4919 19.5233 16.5668C19.5233 20.4017 14.1751 22.7917 8.08923 22.864C7.94917 23.6039 7.87913 24.3765 7.87913 25.1164C7.87913 28.8438 9.67432 31.3062 12.8748 31.3062C15.7952 31.3062 17.6605 29.3363 19.0308 27.3664L19.3483 27.7538C17.8706 30.0412 15.5851 32.5036 11.9247 32.5036ZM17.378 16.7092C17.378 15.3718 16.7454 14.3542 15.1626 14.3542C12.2072 14.3542 9.21677 17.9766 8.2293 22.2339C13.93 22.1265 17.378 19.8765 17.378 16.7092Z" fill="#241409"/>
<path d="M23.6059 31.5887C23.6059 31.3413 23.6759 31.0262 23.886 30.2887C24.8011 26.9113 25.2237 23.674 25.2237 20.8615C25.2237 9.53217 18.3978 0.772563 9.53154 0.772563C5.02839 0.772563 2.14302 3.05991 2.14302 5.52231C2.14302 6.64731 2.74064 7.45722 2.74064 8.47719C2.74064 9.42714 2.17804 9.91962 1.44035 9.91962C0.632636 9.91962 1.16105e-06 9.31977 1.16105e-06 7.70229C-0.00233328 3.76245 3.51567 0 9.88404 0C19.8054 0 27.229 9.0747 27.229 21.3867C27.229 25.0791 26.5613 28.5615 25.7513 31.2713C28.5666 30.1113 31.7671 27.4715 34.0899 24.3066C36.2376 21.4217 37.7129 18.1144 37.7129 14.8444C37.7129 10.1297 34.6875 9.46215 34.6875 7.7373C34.6875 7.03243 35.2151 6.6123 35.8127 6.6123C37.2531 6.6123 39.0483 9.21708 39.0483 13.2269C39.0483 17.2368 37.183 21.5641 34.5801 24.9414C32.1873 28.0714 29.0568 30.7462 26.1341 31.9412C25.4314 32.2213 24.8688 32.3986 24.4463 32.3986C23.9187 32.3986 23.6012 32.0812 23.6012 31.5887H23.6059Z" fill="#241409"/>
</svg>
